<?xml version="1.0" encoding="UTF-8"?>
<svg fill="none" viewBox="0 0 256 256" xmlns="http://www.w3.org/2000/svg">
<path d="m128 256c70.692 0 128-57.308 128-128 0-70.692-57.308-128-128-128-70.692 0-128 57.308-128 128 0 70.692 57.308 128 128 128zm26.241-77.188c-0.022-8e-3 -0.044-0.015-0.066-0.023l-11.79 25.211s-19.897-6.97-36.573-23.664c-0.81-0.811-1.602-1.652-2.376-2.521l-0.52 0.488c-10.793 10.097-18.61 17.64-18.61 17.64s-32.052-23.342-33.293-71.111c-1.2406-47.77 83.294-72.832 83.294-72.832s40.541 13.943 58.593 48.294c18.052 34.352 12.192 88.106 12.192 88.106s-24.887-0.897-50.739-9.551c-0.038-0.013-0.075-0.025-0.112-0.037z" clip-rule="evenodd" fill="#fff" fill-rule="evenodd"/>
</svg>
